<svg width="41" height="43" viewBox="0 0 41 43" fill="none" xmlns="http://www.w3.org/2000/svg">
<path opacity="0.8" fill-rule="evenodd" clip-rule="evenodd" d="M12.6501 10.1013V8C12.6501 4.68629 15.3363 2 18.65 2H21.4805C24.7942 2 27.4805 4.68629 27.4805 8V10.1013H12.6501ZM10.6501 10.1013V8C10.6501 3.58173 14.2318 0 18.65 0H21.4805C25.8988 0 29.4805 3.58172 29.4805 8V10.1013H36.2194C36.732 10.1013 37.1616 10.4889 37.2142 10.9988L40.1127 39.1186C40.295 40.8877 38.907 42.4262 37.1285 42.4262H3.00031C1.2218 42.4262 -0.166237 40.8877 0.0161207 39.1186L2.91462 10.9988C2.96718 10.4889 3.39677 10.1013 3.90935 10.1013H10.6501ZM29.4805 12.1013H35.3172L38.1232 39.3237C38.184 39.9134 37.7213 40.4262 37.1285 40.4262H3.00031C2.40747 40.4262 1.94479 39.9134 2.00558 39.3237L4.81158 12.1013H10.6501V12.1421V14.1421H12.6501H27.4805H29.4805V12.1421V12.1013ZM27.4805 12.1013V12.1421H12.6501V12.1013H27.4805Z" fill="black"/>
</svg>
